<?xml version="1.0" encoding="utf-8"?>
<!-- Svg Vector Icons : http://www.onlinewebfonts.com/icon -->
<!DOCTYPE svg PUBLIC "-//W3C//DTD SVG 1.1//EN" "http://www.w3.org/Graphics/SVG/1.1/DTD/svg11.dtd">
<svg version="1.1" xmlns="http://www.w3.org/2000/svg" xmlns:xlink="http://www.w3.org/1999/xlink" x="0px" y="0px" viewBox="0 0 1000 1000" enable-background="new 0 0 1000 1000" xml:space="preserve">
<metadata> Svg Vector Icons : http://www.onlinewebfonts.com/icon </metadata>
<g><path d="M119.6,391.5h760.6l-81.7-245H201.3L119.6,391.5z M798.5,662c22.1,0,41.3-8.1,57.4-24.2c16.2-16.2,24.3-35.3,24.2-57.4c0-22.1-8.1-41.3-24.2-57.4c-16.1-16.2-35.3-24.2-57.4-24.2c-22.2,0-41.3,8.1-57.4,24.2s-24.2,35.3-24.2,57.4c0,22.1,8,41.3,24.2,57.4C757.2,654,776.4,662,798.5,662z M201.3,662c22.1,0,41.3-8.1,57.4-24.2c16.2-16.2,24.3-35.3,24.2-57.4c0-22.1-8.1-41.3-24.2-57.4c-16.1-16.2-35.3-24.2-57.4-24.2c-22.2,0-41.3,8.1-57.4,24.2c-16.1,16.2-24.2,35.3-24.2,57.4c0,22.1,8,41.3,24.2,57.4C160,654,179.2,662,201.3,662z M877.7,118.4L990,445.1v436.5c0,15.3-5.1,28.1-15.3,38.3c-10.2,10.2-23,15.3-38.3,15.3h-56.1c-15.3,0-28.1-5.1-38.3-15.3c-10.2-10.2-15.3-23-15.3-38.3v-56.1H173.3v56.1c0,15.3-5.1,28.1-15.3,38.3c-10.2,10.2-23,15.3-38.3,15.3H63.6c-15.3,0-28.1-5.1-38.3-15.3c-10.2-10.2-15.3-23-15.3-38.3V445.1l112.3-326.7c10.2-35.7,36.6-53.6,79.1-53.6h597.3c42.5,0,68.9,17.9,79.1,53.6H877.7z"/></g>
</svg>